<?xml version="1.0" encoding="UTF-8"?><svg id="Layer_2" xmlns="http://www.w3.org/2000/svg" viewBox="0 0 94.82 95"><defs><style>.cls-1{fill:#2cce3b;}</style></defs><g id="Layer_1-2"><g><path class="cls-1" d="m93.41,52.24c-.15,1.04-.29,2.07-.45,3.22-1.02-.2-1.97-.39-2.99-.6v7.38c1.01,0,2.02-.01,3.02,0,1.22.02,1.81.6,1.81,1.83.01,2.59.01,5.19,0,7.78,0,1.27-.6,1.84-1.9,1.84-6.03,0-12.06,0-18.09,0-.37,0-.74,0-1.19,0v13.11c1.45,0,2.9,0,4.36,0,1.61,0,2.11.51,2.11,2.15,0,1.4.01,2.8,0,4.2-.01,1.23-.6,1.82-1.82,1.83-4.22.01-8.45,0-12.67,0-1.24,0-1.83-.58-1.85-1.79-.02-1.54-.02-3.07,0-4.61.01-1.17.6-1.76,1.76-1.77,1.56-.02,3.12,0,4.72,0v-13.04H24.58v13.03c1.51,0,3,0,4.49,0,1.43,0,1.97.55,1.98,1.97,0,1.43,0,2.87,0,4.3,0,1.3-.58,1.9-1.84,1.91-4.22,0-8.45,0-12.67,0-1.23,0-1.81-.6-1.83-1.82-.01-1.54-.02-3.07,0-4.61.01-1.15.61-1.74,1.78-1.75,1.53-.02,3.06,0,4.67,0v-13.11c-.34,0-.7,0-1.06,0-5.99,0-11.99,0-17.98,0-1.62,0-2.12-.51-2.13-2.14,0-2.39,0-4.78,0-7.17,0-1.65.5-2.15,2.1-2.16.82,0,1.63,0,2.45,0,.07,0,.13-.03.27-.05v-7.31c-.97.21-1.89.41-2.95.64-.17-1.11-.32-2.16-.49-3.28.85-.19,1.61-.32,2.35-.54,8.9-2.61,14.23-8.68,16.66-17.45.53-1.92.64-3.96.83-5.95.14-1.4.61-2.1,1.69-2.08,1.04.02,1.56.69,1.61,2.05.28,7.61,3.04,14.11,8.94,19,10.58,8.76,25.69,6.01,33.01-5.89,2.41-3.92,3.61-8.2,3.81-12.78,0-.2,0-.41.02-.61.05-1.13.67-1.79,1.67-1.77.95.02,1.56.68,1.59,1.75.08,2.84.44,5.65,1.44,8.32,3.17,8.46,8.9,14.03,17.96,15.78.13.02.25.1.46.18Zm-23.16,13.35H24.6v4.79h45.65v-4.79Zm-49.04,0H3.35v4.79h17.86v-4.79Zm52.4,4.78h17.86v-4.79h-17.86v4.79Zm.03-28.59v20.42h4.83c0-.42,0-.79,0-1.15,0-3.55-.06-7.1.03-10.64.04-1.54-.28-2.73-1.39-3.91-1.33-1.41-2.33-3.13-3.47-4.71Zm-52.45,20.43v-20.31c-1.4,1.82-2.86,3.68-4.26,5.58-.29.4-.55.94-.56,1.42-.04,4.09-.03,8.18-.03,12.27v1.03h4.85Zm8.24,0c0-3.8-.08-7.51.03-11.21.06-1.88-.23-3.42-1.67-4.84-1.27-1.26-2.15-2.9-3.22-4.4v20.45h4.85Zm40.84-20.34c-1.42,1.86-2.87,3.69-4.26,5.58-.31.42-.59,1-.6,1.5-.05,4.09-.03,8.18-.02,12.26,0,.33.03.65.04.96h4.83v-20.3Zm-32.66,20.34c0-2.75,0-5.4-.01-8.05,0-.23-.13-.57-.3-.67-1.49-.85-3-1.65-4.53-2.48v11.21h4.85Zm44.2-11.21v11.18h4.84c0-2.73.01-5.38-.02-8.03,0-.26-.25-.61-.49-.75-1.4-.81-2.84-1.57-4.33-2.39ZM8.17,62.19h4.83v-11.18c-1.51.84-2.96,1.64-4.4,2.47-.19.11-.41.39-.41.6-.03,2.69-.02,5.37-.02,8.11Zm53.93-11.33c-.67.44-1.19.81-1.73,1.14-1.05.66-2.54,1.07-3.03,2.02-.53,1.02-.13,2.53-.13,3.82,0,1.45,0,2.9,0,4.32h4.89v-11.31Zm-16.37,4.94c-1.64-.3-3.2-.59-4.79-.89v7.29h4.79v-6.4Zm3.38,0v6.38h4.8v-7.2c-1.6.27-3.17.54-4.8.82Zm-21.36,34.37h-9.73v1.52h9.73v-1.52Zm39.31,1.5h9.73v-1.51h-9.73v1.51Z"/><path class="cls-1" d="m47.38,0c11.78.02,21.3,9.51,21.28,21.21-.02,12-9.49,21.4-21.53,21.37-11.61-.03-20.99-9.66-20.96-21.53C26.19,9.46,35.75-.02,47.38,0Zm0,3.27c-9.95.09-18.01,8.21-17.94,18.08.07,9.98,8.22,18.03,18.17,17.95,9.85-.08,17.89-8.32,17.79-18.24-.1-9.79-8.29-17.88-18.02-17.8Z"/><g><path class="cls-1" d="m55.85,16.35c-.84.82-1.79,1.75-2.76,2.7-1.62-1.64-3.29-3.32-5.04-5.09-1.77,1.79-3.42,3.46-5.06,5.13-.96-.98-1.87-1.92-2.75-2.83,2.6-2.54,5.26-5.15,7.86-7.69,2.46,2.46,5.1,5.12,7.76,7.79Z"/><path class="cls-1" d="m40.25,26.21c.84-.86,1.76-1.8,2.72-2.78,1.63,1.68,3.26,3.36,4.92,5.07,1.79-1.8,3.43-3.47,5.03-5.08,1.02,1.05,1.95,2.01,2.82,2.91-2.48,2.48-5.12,5.12-7.68,7.68-2.53-2.53-5.16-5.16-7.8-7.8Z"/><path class="cls-1" d="m45.31,21.22c.86-.85,1.83-1.79,2.75-2.7.86.88,1.81,1.84,2.76,2.81-.89.86-1.86,1.8-2.78,2.69-.89-.91-1.83-1.87-2.73-2.8Z"/><path class="cls-1" d="m35.18,21.15c.85-.82,1.79-1.73,2.69-2.59.87.87,1.82,1.82,2.75,2.75-.86.83-1.81,1.74-2.7,2.61-.84-.86-1.78-1.81-2.73-2.77Z"/><path class="cls-1" d="m58.09,24.05c-.88-.91-1.79-1.85-2.67-2.77.9-.88,1.86-1.81,2.81-2.74.83.85,1.76,1.81,2.71,2.78-.9.86-1.84,1.77-2.85,2.73Z"/></g></g></g></svg>