<?xml version="1.0" encoding="UTF-8"?><svg id="Layer_2" xmlns="http://www.w3.org/2000/svg" viewBox="0 0 81.99 95"><defs><style>.cls-1,.cls-2{fill:#fff;}.cls-2{font-family:ArialRoundedMTBold, 'Arial Rounded MT Bold';font-size:12px;}</style></defs><g id="Layer_1-2"><g><g><path class="cls-1" d="m75.68,75.44c0,2.1,0,4.2,0,6.3,0,1.33-.22,1.65-1.48,2.09-9.85,3.47-19.73,6.84-29.52,10.46-2.61.96-4.83.91-7.41-.03-9.78-3.58-19.63-6.96-29.45-10.42-1.29-.45-1.51-.77-1.51-2.16,0-4.27-.02-8.54.02-12.81,0-.68-.22-.99-.84-1.2-1.42-.5-2.82-1.05-4.23-1.6-1.26-.5-1.61-1.4-.95-2.57,2-3.54,4-7.08,6.07-10.57.31-.52,1-.95,1.6-1.16,5.39-1.84,10.8-3.61,16.2-5.43.38-.13.96-.46.97-.71,0-.39-.31-.88-.64-1.16-8.05-6.73-11.27-15.31-8.82-25.47C18.16,8.89,24.88,2.55,35.12.49c13.92-2.81,27.29,6.73,29.26,20.74,1.15,8.18-1.3,15.29-7.05,21.24-.45.47-.88,2.93-.5,3.41.2.25.6.36.94.47,5.37,1.79,10.74,3.59,16.12,5.35.9.29,1.52.77,1.98,1.61,1.83,3.29,3.73,6.56,5.6,9.83.95,1.66.66,2.44-1.16,3.13-1.32.5-2.62,1.03-3.95,1.49-.53.18-.69.44-.69.99.03,2.23.01,4.47.01,6.7Zm-40.99-26.14c0,1.86,0,3.63,0,5.4,0,1.24-.58,1.93-1.6,1.91-.98-.02-1.54-.68-1.54-1.87,0-1.9.01-3.81-.02-5.71,0-.28-.12-.72-.32-.82-.89-.44-1.83-.78-2.83-1.18,0,.89,0,1.68,0,2.47,0,.79.02,1.58,0,2.36-.03.99-.69,1.63-1.61,1.6-.88-.02-1.49-.64-1.52-1.59-.03-.78,0-1.57,0-2.5-4.05,1.35-8,2.66-12.18,4.05.5.21.75.33,1.01.42,8.69,2.9,17.39,5.81,26.09,8.67.57.19,1.3.14,1.88-.04,6.91-2.26,13.8-4.57,20.7-6.87,2-.67,4-1.35,5.99-2.02,0-.07,0-.15,0-.22-3.95-1.32-7.9-2.64-11.97-3.99,0,.96.03,1.78,0,2.59-.06,1.1-1.09,1.81-2.08,1.43-.77-.29-1.07-.89-1.06-1.7.02-1.98,0-3.97,0-6.07-.94.51-1.77.9-2.51,1.41-.31.21-.61.67-.62,1.03-.06,2.07-.03,4.14-.03,6.21,0,.23,0,.46,0,.69-.04,1.01-.64,1.65-1.55,1.67-.92.01-1.58-.62-1.59-1.62-.02-2.09,0-4.19,0-6.32-1.62.34-3.14.66-4.74.99,0,.37,0,.72,0,1.08,0,2.46.01,4.93,0,7.39,0,1.01-.65,1.64-1.57,1.64-.92,0-1.55-.65-1.56-1.65-.02-1.87,0-3.74,0-5.62,0-.91,0-1.82,0-2.69-1.62-.17-3.11-.34-4.74-.51Zm8.56,16.14c1.65,3.3,3.24,6.47,4.84,9.68,10.07-3.84,20.01-7.63,30.01-11.44-1.6-2.8-3.16-5.53-4.74-8.28-10.04,3.35-20,6.67-30.12,10.04Zm-39.36-1.76c10.07,3.83,20.03,7.63,30.02,11.43,1.63-3.27,3.21-6.43,4.83-9.68-10.11-3.37-20.1-6.7-30.12-10.04-1.59,2.78-3.13,5.48-4.74,8.28ZM39.74,3.21c-11.77-.01-21.58,9.72-21.6,21.42-.03,12.17,9.61,21.92,21.69,21.95,11.79.02,21.65-9.75,21.67-21.49.02-12.15-9.64-21.86-21.76-21.88Zm-.36,68.44s-.09-.03-.14-.05c-.93,1.86-1.86,3.72-2.79,5.58-.8,1.6-1.32,1.8-2.96,1.18-5.35-2.04-10.7-4.08-16.06-6.12-2.62-1-5.25-1.99-7.97-3.02,0,1.48.04,2.86-.02,4.23-.03.7.18,1.01.88,1.24,8.2,2.7,16.39,5.44,24.58,8.17,1.47.49,2.95.97,4.47,1.48v-12.69Zm3.26-.3v12.97c.36-.11.64-.18.91-.27,2.8-.93,5.59-1.85,8.38-2.78,6.55-2.18,13.1-4.36,19.65-6.56.36-.12.9-.49.91-.77.09-1.53.04-3.06.04-4.68-.37.13-.65.22-.92.32-7.71,2.93-15.41,5.86-23.12,8.79-1.61.61-2.15.41-2.91-1.1-.95-1.89-1.89-3.77-2.96-5.91Zm29.85,6.45c-.34.1-.62.18-.9.27-3.38,1.12-6.77,2.25-10.15,3.38-6.02,2.01-12.04,4.01-18.05,6.05-.31.1-.76.42-.78.66-.08,1.1-.04,2.2-.04,3.44,10.07-3.54,20-7.03,29.91-10.51v-3.28Zm-33.06,13.78c0-1.01-.06-1.9.02-2.77.07-.83-.24-1.18-1.03-1.44-8.49-2.79-16.96-5.63-25.43-8.46-1.14-.38-2.28-.74-3.52-1.14,0,.92.04,1.71-.01,2.49-.05.65.22.88.81,1.08,7.63,2.65,15.25,5.34,22.88,8.02,2.06.72,4.12,1.45,6.29,2.21Z"/><path class="cls-1" d="m74.13,15.63c-2.65,0-4.74-2.09-4.74-4.74,0-2.64,2.1-4.72,4.76-4.71,2.63,0,4.7,2.12,4.69,4.78-.01,2.58-2.12,4.67-4.71,4.67Zm0-6.3c-.81,0-1.57.75-1.58,1.56,0,.81.74,1.57,1.56,1.58.81,0,1.57-.75,1.58-1.56,0-.81-.75-1.57-1.56-1.58Z"/><path class="cls-1" d="m69.35,36.13c2.66,0,4.75,2.08,4.75,4.73,0,2.64-2.1,4.73-4.75,4.72-2.63,0-4.71-2.12-4.7-4.78,0-2.58,2.11-4.67,4.7-4.67Zm-1.55,4.65c-.05.8.68,1.6,1.49,1.65.8.05,1.6-.68,1.64-1.49.04-.8-.68-1.6-1.49-1.64-.8-.05-1.6.68-1.64,1.49Z"/><path class="cls-1" d="m5.86,33.95c-2.64-.01-4.69-2.12-4.67-4.8.02-2.59,2.11-4.66,4.71-4.65,2.64,0,4.75,2.12,4.74,4.75,0,2.63-2.13,4.71-4.78,4.7Zm1.61-4.65c.04-.8-.68-1.59-1.5-1.64-.81-.05-1.59.67-1.63,1.49-.04.81.66,1.59,1.49,1.64.8.05,1.6-.68,1.64-1.5Z"/><path class="cls-1" d="m39.81,5.39c10.77-.02,19.5,8.72,19.51,19.54.01,10.64-8.78,19.45-19.42,19.46-10.79,0-19.58-8.68-19.59-19.36,0-10.93,8.63-19.62,19.49-19.64Zm-.04,3.15c-8.96,0-16.29,7.38-16.3,16.4,0,8.84,7.36,16.24,16.23,16.28,8.99.05,16.43-7.31,16.45-16.26.02-9.05-7.33-16.43-16.38-16.42Z"/><path class="cls-1" d="m29.35,24.52c0,.85-.71,1.54-1.58,1.55-.93,0-1.6-.69-1.57-1.63.03-.88.72-1.53,1.6-1.51.85.02,1.56.75,1.55,1.59Z"/><path class="cls-1" d="m54.43,24.5c0,.89-.64,1.56-1.52,1.57-.9.01-1.65-.72-1.62-1.6.02-.84.76-1.54,1.6-1.53.87,0,1.54.68,1.54,1.56Z"/></g><text class="cls-2" transform="translate(29 28.23)"><tspan x="0" y="0">PHR</tspan></text><g><path class="cls-1" d="m40.05,15.17h-1.59v2.43c0,.35-.08.61-.25.79s-.37.27-.62.27-.47-.09-.63-.27-.24-.44-.24-.78v-6.62c0-.38.09-.66.26-.82s.46-.25.84-.25h2.23c.66,0,1.17.05,1.52.15.35.1.66.26.91.49s.45.5.58.83.2.7.2,1.11c0,.88-.27,1.54-.81,1.99s-1.34.68-2.41.68Zm-.42-3.94h-1.17v2.62h1.17c.41,0,.75-.04,1.03-.13s.49-.23.63-.42.22-.45.22-.77c0-.38-.11-.69-.33-.93-.25-.25-.76-.38-1.54-.38Z"/><path class="cls-1" d="m38.47,20.84v2.46h3.76v-2.46c0-.35.08-.62.24-.79s.37-.26.62-.26.47.09.64.26.24.44.24.79v6.77c0,.36-.08.62-.25.8s-.38.26-.63.26-.47-.09-.63-.27-.23-.44-.23-.79v-2.89h-3.76v2.89c0,.36-.08.62-.25.8s-.38.26-.63.26-.47-.09-.63-.27-.23-.44-.23-.79v-6.77c0-.35.08-.62.23-.79s.36-.26.63-.26.47.09.64.26.24.44.24.79Z"/><path class="cls-1" d="m39.05,34.85h-.61v2.76c0,.36-.08.63-.24.8s-.37.26-.63.26c-.28,0-.49-.09-.64-.27s-.23-.44-.23-.79v-6.61c0-.38.08-.65.25-.81s.44-.25.81-.25h2.83c.39,0,.72.02,1,.05s.53.1.75.2c.27.11.51.28.71.49s.36.46.47.74.16.58.16.89c0,.64-.18,1.15-.54,1.54s-.91.65-1.64.81c.31.16.6.41.88.73s.53.66.75,1.02.39.69.52.98.18.49.18.6-.04.23-.11.34-.17.2-.3.26-.27.1-.43.1c-.2,0-.36-.05-.49-.14s-.25-.21-.34-.35-.23-.35-.39-.62l-.7-1.16c-.25-.43-.47-.75-.67-.97s-.4-.38-.6-.46-.46-.12-.77-.12Zm1-3.61h-1.61v2.36h1.56c.42,0,.77-.04,1.05-.11s.5-.2.65-.37.23-.41.23-.72c0-.24-.06-.45-.18-.63s-.29-.32-.5-.41c-.2-.09-.6-.13-1.2-.13Z"/></g></g></g></svg>