<?xml version="1.0" encoding="UTF-8"?><svg id="Layer_2" xmlns="http://www.w3.org/2000/svg" viewBox="0 0 95 95"><defs><style>.cls-1{fill:#fff;}.cls-2{fill:none;}</style></defs><g id="Layer_1-2"><g><polygon class="cls-1" points="10.73 19.56 10.73 23.34 13.88 21.45 10.73 19.56"/><rect class="cls-1" x="9.19" y="55.16" width="3.06" height="3.06"/><g><path class="cls-2" d="m23.83,48.83c.06.12.19.2.32.2.2,0,.36-.16.36-.36v-5.77h7.66c.84,0,1.53-.69,1.53-1.53v-12.26c0-.84-.69-1.53-1.53-1.53h-9.31c-1.63,2.8-4.33,4.91-7.54,5.74v6.52H6.13v-7.78c-1.15-.67-2.19-1.52-3.06-2.51v11.82c0,.84.69,1.53,1.53,1.53h16.27l2.96,5.93Zm6.81-8.99h-3.06v-3.06h3.06v3.06Zm-6.13-9.19h6.13v3.06h-6.13v-3.06Zm-6.13,6.13h6.13v3.06h-6.13v-3.06Z"/><polygon class="cls-2" points="42.9 82.74 42.9 85.81 52.1 85.81 52.1 85.81 52.1 82.74 42.9 82.74"/><path class="cls-2" d="m44.44,6.13h6.13c.84,0,1.53-.69,1.53-1.53v-1.53h-9.19v1.53c0,.84.69,1.53,1.53,1.53Z"/><circle class="cls-2" cx="49.03" cy="39.84" r="6.13"/><polygon class="cls-2" points="78.15 33.28 89.1 24.52 67.19 24.52 78.15 33.28"/><circle class="cls-2" cx="12.26" cy="21.45" r="9.19"/><polygon class="cls-2" points="64.35 41.25 73.78 33.71 64.35 26.17 64.35 41.25"/><path class="cls-2" d="m27.22,67.42c.2,0,.36-.16.36-.36v-5.77h4.6c.84,0,1.53-.69,1.53-1.53v-6.13c0-.84-.69-1.53-1.53-1.53H7.66c-.84,0-1.53.69-1.53,1.53v6.13c0,.84.69,1.53,1.53,1.53h16.27l2.96,5.93c.06.12.19.2.32.2Zm.36-12.26h3.06v3.06h-3.06v-3.06Zm-9.19,3.06h-3.06v-3.06h3.06v3.06Zm6.13,0h-3.06v-3.06h3.06v3.06Z"/><path class="cls-2" d="m66.48,84.77c-.22-.09-.44-.18-.65-.27l-3.87,1.93-5.9-5.9,1.93-3.87c-.1-.22-.19-.43-.27-.65l-4.1-1.37v-8.34l4.1-1.37c.09-.22.18-.44.27-.65l-1.93-3.87,5.9-5.9,3.87,1.93c.22-.1.43-.19.65-.27l1.37-4.1h2.64v-6.13h-9.19v-24.52h9.19V7.66c0-2.53-2.06-4.6-4.6-4.6h-10.73v1.53c0,2.53-2.06,4.6-4.6,4.6h-6.13c-2.53,0-4.6-2.06-4.6-4.6v-1.53h-10.73c-2.53,0-4.6,2.06-4.6,4.6v13.79c0,1.06-.13,2.08-.39,3.06h8.05c2.53,0,4.6,2.06,4.6,4.6v12.26c0,2.53-2.06,4.6-4.6,4.6h-4.6v2.7c0,.12,0,.24-.02.36h4.62c2.53,0,4.6,2.06,4.6,4.6v6.13c0,2.53-2.06,4.6-4.6,4.6h-1.53v2.7c0,1.89-1.54,3.43-3.43,3.43-1.08,0-2.06-.49-2.7-1.32v4.39h26.04v3.06h-26.04v10.73c0,2.53,2.06,4.6,4.6,4.6h36.77c2,0,3.7-1.28,4.33-3.06h-2.37l-1.37-4.1ZM29.11,9.19c-.85,0-1.53-.69-1.53-1.53s.69-1.53,1.53-1.53,1.53.69,1.53,1.53-.69,1.53-1.53,1.53Zm29.11,12.26h-3.06v-3.06h3.06v3.06Zm-3.06,3.06v3.06h-15.32v-3.06h15.32Zm-18.39-12.26h21.45v3.06h-21.45v-3.06Zm-1.53-3.06c-.85,0-1.53-.69-1.53-1.53s.69-1.53,1.53-1.53,1.53.69,1.53,1.53-.69,1.53-1.53,1.53Zm1.53,9.19h15.32v3.06h-15.32v-3.06Zm12.26,30.64c-5.07,0-9.19-4.12-9.19-9.19s4.12-9.19,9.19-9.19,9.19,4.12,9.19,9.19-4.12,9.19-9.19,9.19Zm6.13,36.77c0,1.69-1.37,3.06-3.06,3.06h-9.19c-1.69,0-3.06-1.37-3.06-3.06v-3.06c0-1.69,1.37-3.06,3.06-3.06h9.19c1.69,0,3.06,1.37,3.06,3.06v3.06Z"/><polygon class="cls-2" points="78.15 37.2 76.23 35.67 67.19 42.9 89.1 42.9 80.06 35.67 78.15 37.2"/><path class="cls-2" d="m68.91,58.6l-.73.24c-.57.19-1.14.42-1.68.7l-.69.35-3.24-1.62-2.77,2.77,1.62,3.24-.35.69c-.27.54-.51,1.11-.7,1.68l-.24.73-3.44,1.15v3.92l3.44,1.15.24.73c.19.57.42,1.14.7,1.68l.35.69-1.62,3.24,2.77,2.77,3.24-1.62.69.35c.54.27,1.11.51,1.68.7l.73.24,1.15,3.44h3.92l1.15-3.44.73-.24c.57-.19,1.14-.42,1.68-.7l.69-.35,3.24,1.62,2.77-2.77-1.62-3.24.35-.69c.27-.54.51-1.11.7-1.68l.24-.73,3.44-1.15v-3.92l-3.44-1.15-.24-.73c-.19-.57-.42-1.14-.7-1.68l-.35-.69,1.62-3.24-2.77-2.77-3.24,1.62-.69-.35c-.54-.27-1.11-.51-1.68-.7l-.73-.24-1.15-3.44h-3.92l-1.15,3.44Zm9.68,4.67l2.17,2.17-13.34,13.34-4.15-4.15,2.17-2.17,1.98,1.98,11.17-11.17Z"/><polygon class="cls-2" points="91.94 41.25 91.94 26.17 82.51 33.71 91.94 41.25"/><polygon class="cls-1" points="65.44 72.46 63.27 74.63 67.42 78.78 80.76 65.44 78.59 63.27 67.42 74.45 65.44 72.46"/><path class="cls-1" d="m52.1,79.68h-9.19c-1.69,0-3.06,1.37-3.06,3.06v3.06c0,1.69,1.37,3.06,3.06,3.06h9.19c1.69,0,3.06-1.37,3.06-3.06v-3.06c0-1.69-1.37-3.06-3.06-3.06Zm0,6.13h-9.19v-3.06h9.19v3.06s0,0,0,0Z"/><path class="cls-1" d="m29.11,6.13c-.85,0-1.53.69-1.53,1.53s.69,1.53,1.53,1.53,1.53-.69,1.53-1.53-.69-1.53-1.53-1.53Z"/><circle class="cls-1" cx="35.24" cy="7.66" r="1.53"/><path class="cls-1" d="m91.55,21.45h-18V7.66c0-4.23-3.43-7.66-7.66-7.66H29.11c-4.23,0-7.66,3.43-7.66,7.66v5.7c-2.67-3.03-6.8-4.74-11.29-3.99C5,10.23.89,14.45.13,19.63c-.34,2.37,0,4.64.86,6.64C.36,27.07,0,28.07,0,29.11v12.26C0,43.91,2.06,45.97,4.6,45.97h14.38l1.53,3.06H7.66c-2.54,0-4.6,2.06-4.6,4.6v6.13c0,2.54,2.06,4.6,4.6,4.6h13.79v22.98c0,4.23,3.43,7.66,7.66,7.66h36.77c3.7,0,6.8-2.64,7.51-6.13h2.79l1.37-4.1c.26-.11.39-.16.65-.27l3.87,1.93,5.9-5.9-1.93-3.86c.11-.26.16-.39.27-.65l4.1-1.37v-8.34l-4.1-1.37c-.11-.26-.16-.39-.27-.65l1.93-3.86-5.9-5.9-3.87,1.93c-.26-.11-.39-.16-.65-.27l-1.37-4.1h-2.64v-6.13h18c1.9,0,3.45-1.54,3.45-3.45v-17.62c0-1.9-1.54-3.45-3.45-3.45Zm-2.45,3.06l-10.95,8.76-10.95-8.76h21.91Zm-15.32,9.19l-9.42,7.54v-15.08l9.42,7.54ZM42.9,3.06h9.19v1.53c0,.84-.69,1.53-1.53,1.53h-6.13c-.84,0-1.53-.69-1.53-1.53v-1.53ZM12.26,12.26c5.07,0,9.19,4.12,9.19,9.19s-4.12,9.19-9.19,9.19S3.06,26.52,3.06,21.45s4.12-9.19,9.19-9.19Zm0,21.45v3.06h-3.06v-3.06h3.06Zm-7.66,9.19c-.84,0-1.53-.69-1.53-1.53v-11.82c.88.99,1.91,1.85,3.06,2.51v7.78h9.19v-6.52c3.21-.83,5.92-2.94,7.54-5.74h9.31c.84,0,1.53.69,1.53,1.53v12.26c0,.84-.69,1.53-1.53,1.53h-7.66v5.77c0,.2-.16.36-.36.36-.14,0-.26-.08-.32-.2l-2.96-5.93H4.6Zm3.06,18.39c-.84,0-1.53-.69-1.53-1.53v-6.13c0-.84.69-1.53,1.53-1.53h24.52c.84,0,1.53.69,1.53,1.53v6.13c0,.84-.69,1.53-1.53,1.53h-4.6v5.77c0,.2-.16.36-.36.36-.14,0-.26-.08-.32-.2l-2.96-5.93H7.66Zm58.23,30.65H29.11c-2.53,0-4.6-2.06-4.6-4.6v-10.73h26.04v-3.06h-26.04v-4.39c.64.83,1.63,1.32,2.7,1.32,1.89,0,3.43-1.54,3.43-3.43v-2.7h1.53c2.53,0,4.6-2.06,4.6-4.6v-6.13c0-2.53-2.06-4.6-4.6-4.6h-4.62c.01-.12.02-.24.02-.36v-2.7h4.6c2.53,0,4.6-2.06,4.6-4.6v-12.26c0-2.53-2.06-4.6-4.6-4.6h-8.05c.25-.98.39-2.01.39-3.06V7.66c0-2.53,2.06-4.6,4.6-4.6h10.73v1.53c0,2.53,2.06,4.6,4.6,4.6h6.13c2.53,0,4.6-2.06,4.6-4.6v-1.53h10.73c2.53,0,4.6,2.06,4.6,4.6v13.79h-9.19v24.52h9.19v6.13h-2.64l-1.37,4.1c-.22.09-.44.18-.65.27l-3.87-1.93-5.9,5.9,1.93,3.87c-.1.22-.19.43-.27.65l-4.1,1.37v8.34l4.1,1.37c.08.22.18.44.27.65l-1.93,3.87,5.9,5.9,3.87-1.93c.22.1.43.19.65.27l1.37,4.1h2.37c-.63,1.78-2.34,3.06-4.33,3.06Zm8.09-36.77l1.15,3.44.73.24c.57.19,1.14.42,1.68.7l.69.35,3.24-1.62,2.77,2.77-1.62,3.24.35.69c.27.54.51,1.11.7,1.68l.24.73,3.44,1.15v3.92l-3.44,1.15-.24.73c-.19.57-.42,1.14-.7,1.68l-.35.69,1.62,3.24-2.77,2.77-3.24-1.62-.69.35c-.54.27-1.11.51-1.68.7l-.73.24-1.15,3.44h-3.92l-1.15-3.44-.73-.24c-.57-.19-1.14-.42-1.68-.7l-.69-.35-3.24,1.62-2.77-2.77,1.62-3.24-.35-.69c-.27-.54-.51-1.11-.7-1.68l-.24-.73-3.44-1.15v-3.92l3.44-1.15.24-.73c.19-.57.42-1.14.7-1.68l.35-.69-1.62-3.24,2.77-2.77,3.24,1.62.69-.35c.54-.27,1.11-.51,1.68-.7l.73-.24,1.15-3.44h3.92Zm-6.79-12.26l9.04-7.23,1.92,1.53,1.92-1.53,9.04,7.23h-21.91Zm24.74-1.66l-9.42-7.54,9.42-7.54v15.08Z"/><rect class="cls-1" x="27.58" y="36.77" width="3.06" height="3.06"/><rect class="cls-1" x="18.39" y="36.77" width="6.13" height="3.06"/><rect class="cls-1" x="24.52" y="30.65" width="6.13" height="3.06"/><rect class="cls-1" x="15.32" y="55.16" width="3.06" height="3.06"/><rect class="cls-1" x="21.45" y="55.16" width="3.06" height="3.06"/><rect class="cls-1" x="27.58" y="55.16" width="3.06" height="3.06"/><rect class="cls-1" x="36.77" y="12.26" width="21.45" height="3.06"/><rect class="cls-1" x="55.16" y="18.39" width="3.06" height="3.06"/><rect class="cls-1" x="36.77" y="18.39" width="15.32" height="3.06"/><rect class="cls-1" x="39.84" y="24.52" width="15.32" height="3.06"/><path class="cls-1" d="m58.23,39.84c0-5.07-4.12-9.19-9.19-9.19s-9.19,4.12-9.19,9.19,4.12,9.19,9.19,9.19,9.19-4.12,9.19-9.19Zm-9.19,6.13c-3.38,0-6.13-2.75-6.13-6.13s2.75-6.13,6.13-6.13,6.13,2.75,6.13,6.13-2.75,6.13-6.13,6.13Z"/></g></g></g></svg>