<?xml version="1.0" encoding="UTF-8"?><svg id="Layer_2" xmlns="http://www.w3.org/2000/svg" viewBox="0 0 77.64 95"><defs><style>.cls-1{fill:#4cb64a;}</style></defs><g id="Layer_1-2"><g><path class="cls-1" d="m64.25,0c-.01.31-.04.62-.04.93,0,13.83,0,27.66,0,41.5v.96c2.23.37,3.76,1.57,4.59,3.41,1.25-.21,2.42-.59,3.57-.56,2.85.08,5.18,2.42,5.21,5.27.07,6.06.13,12.13-.04,18.19-.05,1.9-.84,3.78-1.3,5.67-.33,1.35-.68,2.69-1.03,4.09.61.03,1.16.05,1.77.08v15.46H.08v-24.32h2.72v21.53h32.87v-12.68h1.89c-.15-.36-.24-.61-.35-.84-1.32-2.62-2.65-5.23-3.95-7.86-.21-.42-.33-.94-.33-1.41-.01-4.8,0-9.59.03-14.39.02-3.71,2.25-5.95,5.93-6.01.76-.01,1.53,0,2.33,0v-3.47H7.08V7.13h36.87v2.76H9.9v32.77h31.39c0-.36,0-.7,0-1.03,0-3.06-.02-6.13,0-9.19.02-2.28.98-4.08,3.05-5.14,1.94-.99,3.9-.88,5.71.36,1.69,1.15,2.44,2.83,2.45,4.84.01,2.88,0,5.75,0,8.71.65-.21,1.22-.4,1.85-.6V9.91h-7.34v-2.76h10.17v1.07c0,10.58,0,21.17-.01,31.75,0,.66.21.97.76,1.37,1.02.74,1.86,1.73,3,2.83.47,0,.4-.62.4-1.21,0-9.81,0-19.62,0-29.43,0-3.22,0-6.44,0-9.65,0-.33,0-.66,0-1.04H2.85v65.07H.02v-1.15c0-21.85,0-43.69,0-65.54,0-.4-.01-.8-.02-1.2,21.42,0,42.83,0,64.25,0Zm9.87,82.34h-22.61v-2.84c.4,0,.74,0,1.07,0,6.28,0,12.56,0,18.84.01.63,0,.92-.13,1.06-.81.29-1.45.73-2.87,1.07-4.31.43-1.86,1.12-3.72,1.18-5.59.16-5.47.06-10.95.05-16.43,0-.37-.02-.74-.09-1.11-.28-1.47-1.53-2.4-3.03-2.25-1.34.13-2.39,1.3-2.42,2.72-.02,1.36,0,2.72,0,4.08,0,1.35,0,2.7,0,4.08h-2.78c-.02-.31-.04-.55-.04-.8,0-3.28.01-6.56,0-9.84-.01-1.83-1.16-3.04-2.79-3.04-1.64,0-2.73,1.23-2.73,3.07,0,3.22,0,6.44,0,9.65,0,.32-.03.65-.04.95h-2.79c0-.42,0-.78,0-1.15,0-3.99.02-7.98-.02-11.98,0-.66-.11-1.38-.39-1.97-.51-1.08-1.84-1.61-2.99-1.34-1.23.29-2.11,1.37-2.11,2.7-.02,4.21,0,8.42,0,12.63,0,.36,0,.72,0,1.09h-2.85c0-.46,0-.86,0-1.26,0-8.51,0-17.02,0-25.53,0-.46,0-.93-.07-1.39-.19-1.22-1.28-2.15-2.51-2.21-1.74-.08-2.92,1.13-2.92,3.05,0,10.18,0,20.36,0,30.54,0,.36,0,.73,0,1.15h-2.89v-12.44c-.88,0-1.62,0-2.36,0-1.99.02-3.1,1.12-3.1,3.11-.01,4.64-.02,9.28,0,13.92,0,.47.13.98.33,1.41,1.38,2.8,2.81,5.57,4.18,8.37.33.67.71.92,1.47.91,2.31-.06,4.62-.02,6.99-.02v2.88h-10.16v9.85h35.5v-9.89Z"/><path class="cls-1" d="m29.82,51.68v2.71c-.51.03-1.02.06-1.62.1v22.81c-1.75-.64-3.37-1.19-4.96-1.83-.74-.3-1.42-.37-2.12.02-2.32,1.29-4.66,1.33-7.01.1-.98-.51-1.91-.39-2.9.07-1.31.6-2.68,1.08-4.17,1.67v-22.83c-.64-.04-1.15-.08-1.7-.12v-2.7h24.48Zm-4.58,21.42v-18.61h-15.37v18.53c1.03-.27,2.05-.77,3.06-.73,1.04.04,2.08.55,3.06.97,1.06.45,2.04.49,3.08-.05,1.95-1.02,3.93-1.31,5.93-.11.04.03.12,0,.24-.01Z"/><path class="cls-1" d="m38.52,15.9c.75.64,1.41,1.19,2.15,1.81-3.74,4.44-7.46,8.84-11.22,13.3-2-2.77-3.95-5.48-5.96-8.25.76-.56,1.47-1.08,2.26-1.66,1.29,1.78,2.56,3.52,3.87,5.32,2.97-3.52,5.9-6.99,8.89-10.53Z"/><path class="cls-1" d="m22.35,36.26h2.71v2.71h-2.71v-2.71Z"/><path class="cls-1" d="m30.68,36.29v2.66h-2.73v-2.66h2.73Z"/><path class="cls-1" d="m33.5,38.95v-2.65h2.74v2.65h-2.74Z"/><path class="cls-1" d="m68.3,85.97v2.7h-2.67v-2.7h2.67Z"/><path class="cls-1" d="m21.68,58.01v2.7h-8.28v-2.7h8.28Z"/><path class="cls-1" d="m13.38,67.71v-2.68h8.28v2.68h-8.28Z"/></g></g></svg>